<svg xmlns="http://www.w3.org/2000/svg" width="1200" height="900" viewBox="0 0 1200 900" role="img" aria-label="Small Business Order Tracker - One place for orders, status and follow-up"><defs><linearGradient id="g" x1="0" y1="0" x2="1" y2="1"><stop offset="0" stop-color="#e8f5f2"/><stop offset="1" stop-color="#fffaf1"/></linearGradient><pattern id="dots" width="32" height="32" patternUnits="userSpaceOnUse"><circle cx="5" cy="5" r="2" fill="#23746c" opacity=".12"/></pattern></defs><rect width="1200" height="900" rx="52" fill="url(#g)"/><rect width="1200" height="900" rx="52" fill="url(#dots)"/><rect x="86" y="76" width="1028" height="748" rx="48" fill="#fffdf8"/><rect x="86" y="76" width="1028" height="132" rx="48" fill="#23746c"/><text x="132" y="156" fill="#fff8ed" font-family="Arial" font-size="26" font-weight="700" letter-spacing="4">ORDERS</text><rect x="132" y="278" width="515" height="315" rx="28" fill="#e8f5f2" stroke="#e5dacb"/><rect x="180" y="335" width="360" height="30" rx="15" fill="#23746c" opacity=".24"/><rect x="180" y="400" width="285" height="22" rx="11" fill="#d9d0c2"/><rect x="180" y="450" width="335" height="22" rx="11" fill="#d9d0c2"/><rect x="180" y="500" width="245" height="22" rx="11" fill="#d9d0c2"/><circle cx="875" cy="430" r="150" fill="#23746c" opacity=".12"/><path d="M800 435h150M875 360v150" stroke="#23746c" stroke-width="18" stroke-linecap="round"/><text x="132" y="690" fill="#203a2d" font-family="Georgia,serif" font-size="56" font-weight="700">Small Business Order Tracker</text><text x="134" y="750" fill="#756e62" font-family="Arial" font-size="30">One place for orders, status and follow-up</text><text x="132" y="812" fill="#23746c" font-family="Arial" font-size="22" font-weight="700" letter-spacing="3">NEXALYPLANNER ORDER GUIDE</text></svg>