<?xml version="1.0" encoding="UTF-8"?>
<svg xmlns="http://www.w3.org/2000/svg" width="1200" height="1500" viewBox="0 0 1200 1500" role="img" aria-labelledby="title desc">
<title id="title">Black Friday Content Planning journal feature image | Nexaly Planner</title>
<desc id="desc">Black Friday marketing plan feature image for a small clothing business with offer planning and launch checklist</desc>
<defs>
  <linearGradient id="bg" x1="0" y1="0" x2="1" y2="1"><stop offset="0" stop-color="#2C2117"/><stop offset="1" stop-color="#163044"/></linearGradient>
  <filter id="shadow" x="-20%" y="-20%" width="140%" height="140%"><feDropShadow dx="0" dy="24" stdDeviation="28" flood-color="#282419" flood-opacity=".18"/></filter>
  <pattern id="dots" width="34" height="34" patternUnits="userSpaceOnUse"><circle cx="3" cy="3" r="2.2" fill="#FBF8F0" opacity=".13"/></pattern>
</defs>
<rect width="1200" height="1500" fill="url(#bg)"/>
<rect width="1200" height="1500" fill="url(#dots)" opacity=".65"/>
<circle cx="1020" cy="210" r="260" fill="#FFFFFF" opacity=".08"/>
<circle cx="135" cy="1310" r="330" fill="#F0C36A" opacity=".16"/>
<g transform="translate(92 92)">
  <rect width="1016" height="1316" rx="54" fill="#241F1A" opacity=".82"/>
  <rect x="36" y="36" width="944" height="1244" rx="42" fill="none" stroke="#F0C36A" stroke-width="2" opacity=".72"/>
</g>
<g transform="translate(140 155)">
  <text x="0" y="0" font-family="Inter, Arial, sans-serif" font-size="24" font-weight="800" letter-spacing="5" fill="#F0C36A">CONTENT PLANNING</text>
  <text x="0" y="70" font-family="Georgia, 'Times New Roman', serif" font-size="62" font-weight="700" fill="#FBF8F0">Black Friday</text>
  <text x="0" y="118" font-family="Inter, Arial, sans-serif" font-size="25" font-weight="600" fill="#E6D2A0">Offer planning and launch checklist</text>
</g>
<g transform="translate(150 390)"><rect width="900" height="560" rx="42" fill="#FBF8F0" filter="url(#shadow)"/><rect x="56" y="56" width="788" height="120" rx="32" fill="#F0C36A" opacity=".28"/><text x="92" y="132" font-family="Inter, Arial" font-size="44" font-weight="900" fill="#2C2117">BLACK FRIDAY</text><g transform="translate(72 230)"><g transform="translate(0 0)"><rect width="155" height="210" rx="28" fill="#2C2117" opacity="0.92"/><rect x="28" y="38" width="92" height="16" rx="8" fill="#F0C36A"/><rect x="28" y="78" width="68" height="14" rx="7" fill="#FBF8F0" opacity=".72"/><rect x="28" y="146" width="98" height="34" rx="17" fill="#F0C36A" opacity=".9"/></g><g transform="translate(195 0)"><rect width="155" height="210" rx="28" fill="#2C2117" opacity="0.8200000000000001"/><rect x="28" y="38" width="92" height="16" rx="8" fill="#F0C36A"/><rect x="28" y="78" width="68" height="14" rx="7" fill="#FBF8F0" opacity=".72"/><rect x="28" y="146" width="98" height="34" rx="17" fill="#F0C36A" opacity=".9"/></g><g transform="translate(390 0)"><rect width="155" height="210" rx="28" fill="#2C2117" opacity="0.72"/><rect x="28" y="38" width="92" height="16" rx="8" fill="#F0C36A"/><rect x="28" y="78" width="68" height="14" rx="7" fill="#FBF8F0" opacity=".72"/><rect x="28" y="146" width="98" height="34" rx="17" fill="#F0C36A" opacity=".9"/></g><g transform="translate(585 0)"><rect width="155" height="210" rx="28" fill="#2C2117" opacity="0.62"/><rect x="28" y="38" width="92" height="16" rx="8" fill="#F0C36A"/><rect x="28" y="78" width="68" height="14" rx="7" fill="#FBF8F0" opacity=".72"/><rect x="28" y="146" width="98" height="34" rx="17" fill="#F0C36A" opacity=".9"/></g></g></g>
<g transform="translate(140 1295)">
  <rect width="250" height="54" rx="27" fill="#F0C36A" opacity=".92"/>
  <text x="32" y="36" font-family="Inter, Arial, sans-serif" font-size="20" font-weight="800" letter-spacing="2" fill="#2C2117">NEXALY PLANNER</text>
  <text x="0" y="102" font-family="Inter, Arial, sans-serif" font-size="20" fill="#E6D2A0">SEO planning guide for USA and Tier 1 markets</text>
</g>
</svg>