<?xml version="1.0" encoding="UTF-8"?>
<svg xmlns="http://www.w3.org/2000/svg" width="1200" height="1500" viewBox="0 0 1200 1500" role="img" aria-labelledby="title desc">
<title id="title">Study Schedule Student Planning journal feature image | Nexaly Planner</title>
<desc id="desc">Exam study schedule template feature image with finals revision blocks, practice sessions and study timeline</desc>
<defs>
  <linearGradient id="bg" x1="0" y1="0" x2="1" y2="1"><stop offset="0" stop-color="#F5F0E4"/><stop offset="1" stop-color="#DCE4F7"/></linearGradient>
  <filter id="shadow" x="-20%" y="-20%" width="140%" height="140%"><feDropShadow dx="0" dy="24" stdDeviation="28" flood-color="#282419" flood-opacity=".18"/></filter>
  <pattern id="dots" width="34" height="34" patternUnits="userSpaceOnUse"><circle cx="3" cy="3" r="2.2" fill="#282419" opacity=".08"/></pattern>
</defs>
<rect width="1200" height="1500" fill="url(#bg)"/>
<rect width="1200" height="1500" fill="url(#dots)" opacity=".65"/>
<circle cx="1020" cy="210" r="260" fill="#FFFFFF" opacity=".26"/>
<circle cx="135" cy="1310" r="330" fill="#5870A8" opacity=".11"/>
<g transform="translate(92 92)">
  <rect width="1016" height="1316" rx="54" fill="#FBF8F0" opacity=".92"/>
  <rect x="36" y="36" width="944" height="1244" rx="42" fill="none" stroke="#E6DDCB" stroke-width="2" opacity=".72"/>
</g>
<g transform="translate(140 155)">
  <text x="0" y="0" font-family="Inter, Arial, sans-serif" font-size="24" font-weight="800" letter-spacing="5" fill="#5870A8">STUDENT PLANNING</text>
  <text x="0" y="70" font-family="Georgia, 'Times New Roman', serif" font-size="62" font-weight="700" fill="#213D2C">Study Schedule</text>
  <text x="0" y="118" font-family="Inter, Arial, sans-serif" font-size="25" font-weight="600" fill="#6E6959">Finals revision blocks and practice sessions</text>
</g>
<g transform="translate(185 400)"><rect width="830" height="550" rx="40" fill="#FFFFFF" filter="url(#shadow)"/><g transform="translate(75 70)"><rect x="0" y="260" width="112" height="130" rx="26" fill="#5870A8" opacity="0.25"/><rect x="168" y="206" width="112" height="184" rx="26" fill="#5870A8" opacity="0.39"/><rect x="336" y="152" width="112" height="238" rx="26" fill="#5870A8" opacity="0.53"/><rect x="504" y="98" width="112" height="292" rx="26" fill="#5870A8" opacity="0.67"/><rect x="0" y="420" width="680" height="8" rx="4" fill="#E6DDCB"/><rect x="20" y="30" width="280" height="30" rx="15" fill="#213D2C" opacity=".58"/><rect x="20" y="86" width="410" height="18" rx="9" fill="#6E6959" opacity=".34"/></g></g>
<g transform="translate(140 1295)">
  <rect width="250" height="54" rx="27" fill="#5870A8" opacity=".16"/>
  <text x="32" y="36" font-family="Inter, Arial, sans-serif" font-size="20" font-weight="800" letter-spacing="2" fill="#5870A8">NEXALY PLANNER</text>
  <text x="0" y="102" font-family="Inter, Arial, sans-serif" font-size="20" fill="#6E6959">SEO planning guide for USA and Tier 1 markets</text>
</g>
</svg>