<?xml version="1.0" encoding="UTF-8"?>
<svg xmlns="http://www.w3.org/2000/svg" width="1200" height="1500" viewBox="0 0 1200 1500" role="img" aria-labelledby="title desc">
<title id="title">Offline Stock Small Business journal feature image | Nexaly Planner</title>
<desc id="desc">Inventory software without subscription feature image showing offline stock control and one time purchase checklist</desc>
<defs>
  <linearGradient id="bg" x1="0" y1="0" x2="1" y2="1"><stop offset="0" stop-color="#F1E7D9"/><stop offset="1" stop-color="#E9DCCB"/></linearGradient>
  <filter id="shadow" x="-20%" y="-20%" width="140%" height="140%"><feDropShadow dx="0" dy="24" stdDeviation="28" flood-color="#282419" flood-opacity=".18"/></filter>
  <pattern id="dots" width="34" height="34" patternUnits="userSpaceOnUse"><circle cx="3" cy="3" r="2.2" fill="#282419" opacity=".08"/></pattern>
</defs>
<rect width="1200" height="1500" fill="url(#bg)"/>
<rect width="1200" height="1500" fill="url(#dots)" opacity=".65"/>
<circle cx="1020" cy="210" r="260" fill="#FFFFFF" opacity=".26"/>
<circle cx="135" cy="1310" r="330" fill="#A45D35" opacity=".11"/>
<g transform="translate(92 92)">
  <rect width="1016" height="1316" rx="54" fill="#FBF8F0" opacity=".92"/>
  <rect x="36" y="36" width="944" height="1244" rx="42" fill="none" stroke="#E6DDCB" stroke-width="2" opacity=".72"/>
</g>
<g transform="translate(140 155)">
  <text x="0" y="0" font-family="Inter, Arial, sans-serif" font-size="24" font-weight="800" letter-spacing="5" fill="#A45D35">SMALL BUSINESS</text>
  <text x="0" y="70" font-family="Georgia, 'Times New Roman', serif" font-size="62" font-weight="700" fill="#213D2C">Offline Stock</text>
  <text x="0" y="118" font-family="Inter, Arial, sans-serif" font-size="25" font-weight="600" fill="#6E6959">One time purchase inventory control checklist</text>
</g>
<g transform="translate(220 410)"><rect width="760" height="540" rx="38" fill="#FFFFFF" filter="url(#shadow)"/><rect x="70" y="64" width="250" height="26" rx="13" fill="#213D2C" opacity=".7"/><rect x="70" y="112" width="420" height="18" rx="9" fill="#6E6959" opacity=".35"/><g transform="translate(72 180)"><rect width="42" height="42" rx="12" fill="#A45D35" opacity=".18"/><path d="M12 22l8 8 18-22" fill="none" stroke="#A45D35" stroke-width="7" stroke-linecap="round" stroke-linejoin="round"/><rect x="70" y="11" width="360" height="18" rx="9" fill="#213D2C" opacity=".55"/></g><g transform="translate(72 242)"><rect width="42" height="42" rx="12" fill="#A45D35" opacity=".18"/><path d="M12 22l8 8 18-22" fill="none" stroke="#A45D35" stroke-width="7" stroke-linecap="round" stroke-linejoin="round"/><rect x="70" y="11" width="330" height="18" rx="9" fill="#213D2C" opacity=".55"/></g><g transform="translate(72 304)"><rect width="42" height="42" rx="12" fill="#A45D35" opacity=".18"/><path d="M12 22l8 8 18-22" fill="none" stroke="#A45D35" stroke-width="7" stroke-linecap="round" stroke-linejoin="round"/><rect x="70" y="11" width="300" height="18" rx="9" fill="#213D2C" opacity=".55"/></g><g transform="translate(72 366)"><rect width="42" height="42" rx="12" fill="#A45D35" opacity=".18"/><path d="M12 22l8 8 18-22" fill="none" stroke="#A45D35" stroke-width="7" stroke-linecap="round" stroke-linejoin="round"/><rect x="70" y="11" width="270" height="18" rx="9" fill="#213D2C" opacity=".55"/></g><g transform="translate(72 428)"><rect width="42" height="42" rx="12" fill="#A45D35" opacity=".18"/><path d="M12 22l8 8 18-22" fill="none" stroke="#A45D35" stroke-width="7" stroke-linecap="round" stroke-linejoin="round"/><rect x="70" y="11" width="240" height="18" rx="9" fill="#213D2C" opacity=".55"/></g></g>
<g transform="translate(140 1295)">
  <rect width="250" height="54" rx="27" fill="#A45D35" opacity=".16"/>
  <text x="32" y="36" font-family="Inter, Arial, sans-serif" font-size="20" font-weight="800" letter-spacing="2" fill="#A45D35">NEXALY PLANNER</text>
  <text x="0" y="102" font-family="Inter, Arial, sans-serif" font-size="20" fill="#6E6959">SEO planning guide for USA and Tier 1 markets</text>
</g>
</svg>