<?xml version="1.0" encoding="UTF-8"?>
<svg xmlns="http://www.w3.org/2000/svg" width="1200" height="1500" viewBox="0 0 1200 1500" role="img" aria-labelledby="title desc">
<title id="title">Sales + Stock Small Business journal feature image | Nexaly Planner</title>
<desc id="desc">Sales and inventory tracking feature image showing small shop sales connected to stock and profit dashboard</desc>
<defs>
  <linearGradient id="bg" x1="0" y1="0" x2="1" y2="1"><stop offset="0" stop-color="#E6F1EE"/><stop offset="1" stop-color="#E9E5F5"/></linearGradient>
  <filter id="shadow" x="-20%" y="-20%" width="140%" height="140%"><feDropShadow dx="0" dy="24" stdDeviation="28" flood-color="#282419" flood-opacity=".18"/></filter>
  <pattern id="dots" width="34" height="34" patternUnits="userSpaceOnUse"><circle cx="3" cy="3" r="2.2" fill="#282419" opacity=".08"/></pattern>
</defs>
<rect width="1200" height="1500" fill="url(#bg)"/>
<rect width="1200" height="1500" fill="url(#dots)" opacity=".65"/>
<circle cx="1020" cy="210" r="260" fill="#FFFFFF" opacity=".26"/>
<circle cx="135" cy="1310" r="330" fill="#2E5540" opacity=".11"/>
<g transform="translate(92 92)">
  <rect width="1016" height="1316" rx="54" fill="#FBF8F0" opacity=".92"/>
  <rect x="36" y="36" width="944" height="1244" rx="42" fill="none" stroke="#E6DDCB" stroke-width="2" opacity=".72"/>
</g>
<g transform="translate(140 155)">
  <text x="0" y="0" font-family="Inter, Arial, sans-serif" font-size="24" font-weight="800" letter-spacing="5" fill="#2E5540">SMALL BUSINESS</text>
  <text x="0" y="70" font-family="Georgia, 'Times New Roman', serif" font-size="62" font-weight="700" fill="#213D2C">Sales + Stock</text>
  <text x="0" y="118" font-family="Inter, Arial, sans-serif" font-size="25" font-weight="600" fill="#6E6959">Sales connected to inventory and profit</text>
</g>
<g transform="translate(155 415)"><rect width="890" height="530" rx="38" fill="#FFFFFF" filter="url(#shadow)"/><g transform="translate(70 78)"><rect width="210" height="120" rx="26" fill="#2E5540" opacity=".14"/><text x="28" y="58" font-family="Inter, Arial" font-size="22" font-weight="800" fill="#6E6959">Sales</text><rect x="28" y="80" width="118" height="16" rx="8" fill="#2E5540"/></g><g transform="translate(330 78)"><rect width="210" height="120" rx="26" fill="#213D2C" opacity=".08"/><text x="28" y="58" font-family="Inter, Arial" font-size="22" font-weight="800" fill="#6E6959">Stock</text><rect x="28" y="80" width="145" height="16" rx="8" fill="#213D2C" opacity=".55"/></g><path d="M100 398C210 294 305 338 407 252c120-102 208-38 360-165" fill="none" stroke="#2E5540" stroke-width="15" stroke-linecap="round"/><g fill="#213D2C" opacity=".12"><rect x="115" y="295" width="54" height="110" rx="15"/><rect x="255" y="263" width="54" height="144" rx="15"/><rect x="395" y="231" width="54" height="178" rx="15"/><rect x="535" y="199" width="54" height="212" rx="15"/><rect x="675" y="167" width="54" height="246" rx="15"/></g></g>
<g transform="translate(140 1295)">
  <rect width="250" height="54" rx="27" fill="#2E5540" opacity=".16"/>
  <text x="32" y="36" font-family="Inter, Arial, sans-serif" font-size="20" font-weight="800" letter-spacing="2" fill="#2E5540">NEXALY PLANNER</text>
  <text x="0" y="102" font-family="Inter, Arial, sans-serif" font-size="20" fill="#6E6959">SEO planning guide for USA and Tier 1 markets</text>
</g>
</svg>